<svg width="76" height="76" viewBox="0 0 76 76" fill="none" xmlns="http://www.w3.org/2000/svg">
<g id="Frame">
<path id="Vector" d="M38 6.33337C55.4534 6.33337 69.6667 20.5398 69.6667 38.0184C69.6667 55.4602 55.4534 69.6667 38 69.6667C20.5467 69.6667 6.33337 55.4602 6.33337 38.0184C6.33337 20.5398 20.5467 6.33337 38 6.33337ZM34.3932 25.4281C33.7208 25.4281 33.0789 25.5808 32.4675 25.8864C31.7034 26.3141 31.0921 26.9862 30.7558 27.7806C30.5419 28.3305 30.2056 29.9803 30.2056 30.0108C29.8694 31.8134 29.686 34.7463 29.686 37.9848C29.686 41.0735 29.8694 43.8812 30.1445 45.7143C30.1751 45.7449 30.5113 47.7918 30.8781 48.4945C31.5506 49.7777 32.8649 50.572 34.271 50.572H34.3932C35.3102 50.5414 37.2359 49.7471 37.2359 49.7166C40.4759 48.3723 46.8643 44.1867 49.4318 41.4065L49.6152 41.2232C49.9515 40.8872 50.3794 40.3678 50.4711 40.2456C50.9601 39.604 51.2047 38.8097 51.2047 38.0184C51.2047 37.1293 50.9296 36.3044 50.4099 35.6323C50.2877 35.5101 49.8292 34.9907 49.4013 34.563C46.8948 31.8745 40.3536 27.475 36.9302 26.1308C36.4106 25.92 35.0962 25.4586 34.3932 25.4281Z" fill="black"/>
</g>
</svg>
